# xmcd
#
# Track frame offsets:
#	150
#	16290
#	59461
#	82742
#
# Disc length: 1588 seconds
# Revision: 0
# Processed by: cddbd v1.5.2PL0 Copyright (c) Steve Scherf et al.
# Submitted via: dBpowerAMP V12.0
#
DISCID=23063204
DTITLE=Black Circles  - From The Top
DYEAR=2015
DGENRE=Blues
TTITLE0=Gypsy Girl
TTITLE1=Bad Luck
TTITLE2=I'm Leaving
TTITLE3=Stop Acting This Way
EXTD=
EXTT0=
EXTT1=
EXTT2=
EXTT3=
PLAYORDER=
